#N canvas 632 261 362 216 10;
#X obj 51 39 osc~ 440;
#X obj 51 82 rfft~;
#X obj 51 130 print~ real;
#X obj 163 131 print~ imaginary;
#X obj 131 37 bng 15 250 50 0 empty empty empty 17 7 0 10 -262144 -1
-1;
#X obj 131 80 t b b;
#X obj 154 36 loadbang;
#X connect 0 0 1 0;
#X connect 1 0 2 0;
#X connect 1 1 3 0;
#X connect 4 0 5 0;
#X connect 5 0 2 0;
#X connect 5 1 3 0;
#X connect 6 0 5 0;
