#N canvas 677 54 548 463 10;
#X msg 319 179 0 1000;
#X msg 411 145 1 1000;
#X obj 229 319 line 0 100;
#X obj 64 12 bng 15 250 50 0 empty empty empty 17 7 0 10 -262144 -1
-1;
#X obj 101 17 loadbang;
#X obj 229 350 print;
#X msg 473 144 0;
#X msg 235 177 1;
#X obj 78 50 t b b b b b b;
#X obj 147 147 delay 2000;
#X msg 147 177 0 1000;
#X msg 60 176 stop;
#X obj 60 146 delay 2500;
#X obj 235 147 delay 2000;
#X obj 319 147 delay 950;
#X connect 0 0 2 0;
#X connect 1 0 2 0;
#X connect 2 0 5 0;
#X connect 3 0 8 0;
#X connect 4 0 8 0;
#X connect 6 0 2 0;
#X connect 7 0 2 0;
#X connect 8 0 12 0;
#X connect 8 1 9 0;
#X connect 8 2 13 0;
#X connect 8 3 14 0;
#X connect 8 4 1 0;
#X connect 8 5 6 0;
#X connect 9 0 10 0;
#X connect 10 0 2 0;
#X connect 11 0 2 0;
#X connect 12 0 11 0;
#X connect 13 0 7 0;
#X connect 14 0 0 0;
