#N canvas 564 200 450 425 10;
#X obj 131 81 loadbang;
#X obj 203 81 bng 15 250 50 0 empty empty empty 17 7 0 10 -262144 -1
-1;
#X obj 200 242 print;
#X obj 200 219 div 1;
#X msg 331 157 1;
#X msg 298 157 -1;
#X msg 264 157 2;
#X msg 231 157 1;
#X msg 197 157 -1;
#X obj 148 124 t b b b b b b b b;
#X msg 128 157 1;
#X msg 90 157 -1;
#X msg 161 157 -2;
#X connect 0 0 9 0;
#X connect 1 0 9 0;
#X connect 3 0 2 0;
#X connect 4 0 3 0;
#X connect 5 0 3 0;
#X connect 6 0 3 1;
#X connect 7 0 3 0;
#X connect 8 0 3 0;
#X connect 9 0 11 0;
#X connect 9 1 10 0;
#X connect 9 2 12 0;
#X connect 9 3 8 0;
#X connect 9 4 7 0;
#X connect 9 5 6 0;
#X connect 9 6 5 0;
#X connect 9 7 4 0;
#X connect 10 0 3 0;
#X connect 11 0 3 0;
#X connect 12 0 3 1;
