#N canvas 72 48 671 378 10;
#X obj 133 73 loadbang;
#X obj 213 74 bng 15 250 50 0 empty empty empty 17 7 0 10 -262144 -1
-1;
#X obj 148 202 value hello;
#X obj 261 201 value hello;
#X obj 367 201 v world;
#X obj 193 155 f 1;
#X obj 159 109 t b b b b b b b b b;
#X obj 194 274 print;
#X msg 356 151 2;
#X obj 422 157 f 3;
#X connect 0 0 6 0;
#X connect 1 0 6 0;
#X connect 2 0 7 0;
#X connect 3 0 7 0;
#X connect 4 0 7 0;
#X connect 5 0 2 0;
#X connect 6 0 4 0;
#X connect 6 1 9 0;
#X connect 6 2 2 0;
#X connect 6 3 8 0;
#X connect 6 4 4 0;
#X connect 6 5 3 0;
#X connect 6 6 2 0;
#X connect 6 7 5 0;
#X connect 6 8 2 0;
#X connect 8 0 3 0;
#X connect 9 0 4 0;
