#N canvas 326 108 402 286 10;
#X obj 121 21 loadbang;
#X obj 156 175 line~;
#X obj 156 210 dac~;
#X msg 337 89 -1;
#X msg 283 89 1 1000;
#X msg 219 116 1 250;
#X obj 219 90 del 250;
#X obj 156 91 del 500;
#X msg 156 117 -0.5;
#X obj 94 91 del 600;
#X msg 94 118 0.2;
#X obj 34 91 del 700;
#X obj 121 49 t b b b b b b;
#X msg 34 118 0.9 200;
#X connect 0 0 12 0;
#X connect 1 0 2 0;
#X connect 3 0 1 0;
#X connect 4 0 1 0;
#X connect 5 0 1 0;
#X connect 6 0 5 0;
#X connect 7 0 8 0;
#X connect 8 0 1 0;
#X connect 9 0 10 0;
#X connect 10 0 1 0;
#X connect 11 0 13 0;
#X connect 12 0 11 0;
#X connect 12 1 9 0;
#X connect 12 2 7 0;
#X connect 12 3 6 0;
#X connect 12 4 4 0;
#X connect 12 5 3 0;
#X connect 13 0 1 0;
