#N canvas 479 155 450 300 10;
#X obj 181 212 dac~;
#X obj 180 155 osc~ 440;
#X obj 134 14 loadbang;
#X obj 235 11 bng 15 250 50 0 empty empty empty 17 7 0 10 -262144 -1
-1;
#X obj 134 54 t b b b b b;
#X obj 316 112 del 800;
#X obj 313 204 del 400;
#X obj 317 159 del 600;
#X obj 153 89 del 200;
#X obj 92 103 f 220;
#X obj 191 131 f 440;
#X connect 1 0 0 0;
#X connect 2 0 4 0;
#X connect 3 0 4 0;
#X connect 4 0 9 0;
#X connect 4 1 8 0;
#X connect 4 2 6 0;
#X connect 4 3 7 0;
#X connect 4 4 5 0;
#X connect 8 0 10 0;
#X connect 9 0 1 0;
#X connect 10 0 1 0;
