#N canvas 480 168 481 261 10;
#X obj 28 49 s~ hello;
#X obj 28 76 r~ hello;
#X obj 65 105 dac~;
#X obj 28 19 osc~ 440;
#X obj 102 76 receive~ world;
#X text 101 58 r~ world should not produce any output;
#X connect 1 0 2 0;
#X connect 3 0 0 0;
#X connect 4 0 2 0;
