#N canvas 321 288 411 187 10;
#X obj 123 33 osc~ 220;
#X obj 123 84 throw~ osc1;
#X obj 121 115 catch~ osc1;
#X obj 121 148 dac~;
#X obj 208 115 catch~ osc2;
#X obj 217 33 osc~ 440;
#X obj 308 33 osc~ 440;
#X obj 34 115 catch~ osc0;
#X obj 217 58 *~ 0.33;
#X obj 308 58 *~ 0.33;
#X obj 123 58 *~ 0.34;
#X obj 217 84 throw~ osc2;
#X obj 308 84 throw~ osc2;
#X connect 0 0 10 0;
#X connect 2 0 3 0;
#X connect 4 0 3 0;
#X connect 5 0 8 0;
#X connect 6 0 9 0;
#X connect 7 0 3 0;
#X connect 8 0 11 0;
#X connect 9 0 12 0;
#X connect 10 0 1 0;
